/* XPM */
static char * icon_xpm[] = {
"64 64 183 2",
"  	c None",
". 	c #FFA267",
"+ 	c #FF683B",
"@ 	c #FFA569",
"# 	c #FFA66A",
"$ 	c #FF673A",
"% 	c #FFA56A",
"& 	c #FEB988",
"* 	c #FFB480",
"= 	c #FFB580",
"- 	c #FFAD7A",
"; 	c #FF5C38",
"> 	c #FF5632",
", 	c #FF4F2E",
"' 	c #FAC7A3",
") 	c #FFC090",
"! 	c #FF9A75",
"~ 	c #FF6C51",
"{ 	c #FF4227",
"] 	c #FF361E",
"^ 	c #F5CDB2",
"/ 	c #FFC091",
"( 	c #FFC08F",
"_ 	c #FFB387",
": 	c #FF8064",
"< 	c #FF7F63",
"[ 	c #FF5238",
"} 	c #FF4026",
"| 	c #FF2C16",
"1 	c #F4CEB5",
"2 	c #FBC59E",
"3 	c #FFBF8F",
"4 	c #FF8F6E",
"5 	c #FF8063",
"6 	c #FF7559",
"7 	c #FF4228",
"8 	c #FF3A21",
"9 	c #FF2B15",
"0 	c #F7C9AB",
"a 	c #FFAA80",
"b 	c #FF5E44",
"c 	c #FF311A",
"d 	c #F3CEB5",
"e 	c #F3CDB5",
"f 	c #FEC193",
"g 	c #FFBC8D",
"h 	c #FF8668",
"i 	c #FF7B5F",
"j 	c #FF472D",
"k 	c #FF3F25",
"l 	c #F3CDB6",
"m 	c #FAC6A1",
"n 	c #FF9F78",
"o 	c #FF684E",
"p 	c #FF4127",
"q 	c #FF371F",
"r 	c #F6CBAE",
"s 	c #FFB689",
"t 	c #FF8164",
"u 	c #FF7E62",
"v 	c #FF4F35",
"w 	c #FF2E18",
"x 	c #FDC296",
"y 	c #FF9371",
"z 	c #FF7256",
"A 	c #FF3D23",
"B 	c #F9C7A5",
"C 	c #FFAE83",
"D 	c #FF5940",
"E 	c #FF351D",
"F 	c #F5CCB2",
"G 	c #FFBE8E",
"H 	c #FF8969",
"I 	c #FF795D",
"J 	c #FF442A",
"K 	c #FF2D17",
"L 	c #FCC39A",
"M 	c #FFA27B",
"N 	c #FF654B",
"O 	c #FF3B22",
"P 	c #F8C8A8",
"Q 	c #FFB98B",
"R 	c #FF8365",
"S 	c #FF7E61",
"T 	c #FF4B31",
"U 	c #FF331C",
"V 	c #F4CCB3",
"W 	c #FF9773",
"X 	c #FF6E54",
"Y 	c #FBC59D",
"Z 	c #FFB085",
"` 	c #FF563C",
" .	c #FF3921",
"..	c #FF8C6C",
"+.	c #FF775B",
"@.	c #FF4329",
"#.	c #F4CDB5",
"$.	c #FFA67E",
"%.	c #FF6147",
"&.	c #FFBB8C",
"*.	c #FF8466",
"=.	c #FF7C60",
"-.	c #FF482E",
";.	c #FF381F",
">.	c #FF9B76",
",.	c #FF6B51",
"'.	c #FFB487",
").	c #FF7F62",
"!.	c #FF3D24",
"~.	c #F9C7A4",
"{.	c #FF906E",
"].	c #FF7459",
"^.	c #F5CCB1",
"/.	c #FF5D43",
"(.	c #FF8768",
"_.	c #FF462C",
":.	c #FF9F79",
"<.	c #FF684D",
"[.	c #FF4E34",
"}.	c #FBC49D",
"|.	c #FF9471",
"1.	c #FF7156",
"2.	c #FF593F",
"3.	c #F4C0B3",
"4.	c #F4B8B2",
"5.	c #F4B8B1",
"6.	c #FE8877",
"7.	c #FF7865",
"8.	c #FF6B58",
"9.	c #FF382A",
"0.	c #FF3322",
"a.	c #F49BAD",
"b.	c #F596A6",
"c.	c #FE7472",
"d.	c #FF6F68",
"e.	c #FF6A63",
"f.	c #FF493F",
"g.	c #FF4439",
"h.	c #F695A5",
"i.	c #FE7470",
"j.	c #FF6A64",
"k.	c #FF4B41",
"l.	c #F694A3",
"m.	c #FE736F",
"n.	c #FF6B64",
"o.	c #FF4B42",
"p.	c #F49BAC",
"q.	c #F793A1",
"r.	c #FF716D",
"s.	c #FF6C66",
"t.	c #FF4E44",
"u.	c #F7929F",
"v.	c #FF716B",
"w.	c #FF4F45",
"x.	c #F7909D",
"y.	c #FF706A",
"z.	c #FF6D67",
"A.	c #FF5047",
"B.	c #F88F9B",
"C.	c #FF6E67",
"D.	c #FF524A",
"E.	c #F88C98",
"F.	c #FF6F69",
"G.	c #FF534A",
"H.	c #F98B95",
"I.	c #FF6E68",
"J.	c #FF564E",
"K.	c #F98992",
"L.	c #FF574F",
"M.	c #FA878F",
"N.	c #FF5951",
"O.	c #FA858C",
"P.	c #FF5C54",
"Q.	c #FB8288",
"R.	c #FF5D55",
"S.	c #FB8085",
"T.	c #FF6058",
"U.	c #F59AAB",
"V.	c #FC7F83",
"W.	c #FF615A",
"X.	c #FF453A",
"Y.	c #FD7878",
"Z.	c #FF665F",
"                                                                                                                                ",
"                                                                                                                                ",
"                                                              . +                                                               ",
"                                                          @ # . + $ $                                                           ",
"                                                        # # # . + $ $ $                                                         ",
"                                                    % # # # # . + $ $ $ $ $                                                     ",
"                                                  # # # # # # . + $ $ $ $ $ $                                                   ",
"                                              % # # # # # # # . + $ $ $ $ $ $ $ $                                               ",
"                                            # # # # # # # # # . + $ $ $ $ $ $ $ $ $                                             ",
"                                        % # # # # # # # # # # . + $ $ $ $ $ $ $ $ $ $ $                                         ",
"                                    @ # # # # # # # # # # # # . + $ $ $ $ $ $ $ $ $ $ $ $                                       ",
"                                  % # # # # # # # # # # # # # . + $ $ $ $ $ $ $ $ $ $ $ $ $ $                                   ",
"                              @ # # # # # # # # # # # # # # # . + $ $ $ $ $ $ $ $ $ $ $ $ $ $ $ $                               ",
"                            # # # # # # # # # # # # # # # # # . + $ $ $ $ $ $ $ $ $ $ $ $ $ $ $ $ $                             ",
"                        @ # # # # # # # # # # # # # # # # # # . + $ $ $ $ $ $ $ $ $ $ $ $ $ $ $ $ $ $ $                         ",
"                      # # # # # # # # # # # # # # # # # # # # . + $ $ $ $ $ $ $ $ $ $ $ $ $ $ $ $ $ $ $ $                       ",
"                  @ # # # # # # # # # # # # # # # # # # # # # . + $ $ $ $ $ $ $ $ $ $ $ $ $ $ $ $ $ $ $ $ $ $                   ",
"                # # # # # # # # # # # # # # # # # # # # # # # . + $ $ $ $ $ $ $ $ $ $ $ $ $ $ $ $ $ $ $ $ $ $ $                 ",
"            & * * * = = = = * * * * * = * = * = * = = = * * * - ; > > > > > > > > > > > > > > > > > > > > > > > > ,             ",
"            ' ) ) ) ) ) ) ) ) ) ) ) ) ) ) ) ) ) ) ) ) ) ) ) ) ! ~ { { { { { { { { { { { { { { { { { { { { { { { { ]             ",
"            ^ / ) ) ) ) ) ) ) ) ) ( ) ) ) ) ) ) ) ) ) ) ) ) _ : < [ { { { { { { { { { { { { { { { { { { { { { { } |             ",
"            1 2 ) ) ) ) ) ) ) ) ) ) ) ) ) ) ) ) ) ) ) ) ) 3 4 5 5 6 7 { { { { { { { { { { { { { { { { { { { { { 8 9             ",
"            1 0 ) ) ) ) ) ) ) ) ) ) ) ) ) ) ) ) ) ) ) ) ) a 5 < 5 5 b { { { { { { { { { { { { { { { { { { { { { c 9             ",
"            d e f ) ) ) ) ) ) ) ) ) ) ) ) ) ) ) ) ) ) ) g h < 5 5 < i j { { { { { { { { { { { { { { { { { { { k 9 9             ",
"            1 l m ) ) ) ) ) ) ) ) ) ) ) ) ) ) ) ) ) ) ) n < < 5 < < < o { { { { { { { { { { { { { { { p { { { q 9 9             ",
"            d l r ) ) ) ) ) ) ) ) ) ) ) ) ) ) ) ) ) ) s t 5 < 5 5 5 5 u v { { { { { { { { { { { { { { { { { { w 9 9             ",
"            d l l x ) ) ) ) ) ) ) ) ) ) ) ) ) ) ) ) ( y 5 5 5 5 5 5 < 5 z { { { { { { { { { { { { { { { { { A 9 9 9             ",
"            1 l l B ) ) ) ) ) ) ) ) ) ) ) ) ) ) ) ) C 5 < < 5 < 5 < 5 5 5 D { { { { { { { { { { { { { { { { E 9 9 9             ",
"            1 l l F ) ) ) ) ) ) ) ( ) ) ) ) ) ) ) G H 5 5 5 < 5 5 < 5 5 5 I J { { { { { { { { { { { { { { p K 9 9 9             ",
"            1 l l l L ) ) ) ) ) ) ) ) ) ) ) ) ) ) M 5 < < 5 < 5 5 < 5 5 < 5 N { { { { { { { { { { { { { { O 9 9 9 9             ",
"            1 l l l P ) ) ) ) ) ) ) ) ) ) ) ) ) Q R < 5 5 5 5 < 5 5 < 5 5 5 S T { { { { { { { { { { { { { U 9 9 9 9             ",
"            d l l l V / ) ) ) ) ) ) ) ) ) ) ) ) W < 5 5 5 < < 5 5 < 5 5 < 5 < X { { { { { { { { { { { { } | 9 9 9 9             ",
"            1 l l l l Y ) ) ) ) ) ) ) ) ) ) ) Z : 5 5 5 < < < 5 < < < 5 5 < < < ` { { { { { { { { { { p  .9 9 9 9 9             ",
"            d l l l l 0 ) ) ) ) ) ) ) ) ) ) 3 ..< < 5 < < 5 < 5 5 5 5 5 < < 5 5 +.@.{ { { { { { { { { { c 9 9 9 9 9             ",
"            d l l l l #.f ) ) ) ) ) ) ) ) ) $.5 5 5 < 5 5 5 5 5 5 5 < 5 5 5 < 5 5 %.{ { { { { { { { { k 9 9 9 9 9 9             ",
"            1 l l l l l m ) ) ) ) ) ) ) ) &.*.< 5 5 < 5 < < 5 < 5 < 5 5 5 5 5 5 < =.-.{ { { { { { { { ;.9 9 9 9 9 9             ",
"            1 l l l l l r ) ) ) ) ( ) ) ) >.< 5 < < 5 5 5 5 < 5 5 < 5 5 5 5 5 5 5 < ,.{ { { { { { { { w 9 9 9 9 9 9             ",
"            1 l l l l l l x ) ) ) ) ) ) '.t 5 5 5 5 5 < < 5 < 5 5 < 5 5 < 5 < 5 5 5 ).[ { { { { { { !.9 9 9 9 9 9 9             ",
"            1 l l l l l l ~.) ) ) ) ) 3 {.5 < < 5 5 < 5 5 5 5 < 5 5 < 5 5 5 5 < < 5 5 ].7 { { { { { ] 9 9 9 9 9 9 9             ",
"            d l l l l l l ^.) ) ) ) ) a < 5 < < 5 < 5 5 5 < < 5 5 < 5 5 < 5 < < < < 5 5 /.{ { { { p K 9 9 9 9 9 9 9             ",
"            1 l l l l l l l L ) ) ) g (.5 5 < 5 5 5 5 5 < < < 5 < < < 5 5 < < 5 5 5 < 5 i _.{ { { O 9 9 9 9 9 9 9 9             ",
"            d l l l l l l l P ) ) ) :.5 < < 5 < < < 5 < < 5 < 5 5 5 5 5 < < 5 5 5 5 5 5 5 <.{ { { U 9 9 9 9 9 9 9 9             ",
"            d l l l l l l l V / ) s t < 5 5 < 5 5 5 < 5 5 5 5 5 5 5 < 5 5 5 < 5 5 < 5 < < u [.{ } | 9 9 9 9 9 9 9 9             ",
"            1 l l l l l l l l }.( |.5 5 < < 5 < 5 5 < 5 < < 5 < 5 < 5 5 5 5 5 5 < 5 < 5 < 5 1.{  .9 9 9 9 9 9 9 9 9             ",
"            1 l l l l l l l l 0 C 5 5 5 < 5 < 5 < < 5 5 5 5 < 5 5 < 5 5 5 5 5 5 5 < 5 5 < 5 < 2.c 9 9 9 9 9 9 9 9 9             ",
"            3.4.4.4.4.4.4.4.4.5.6.7.7.7.7.7.7.7.7.7.7.7.7.7.7.7.7.7.7.7.7.7.7.7.7.7.7.7.7.7.7.8.9.9.9.9.9.9.9.9.9.0.            ",
"                a.a.a.a.a.a.a.a.b.c.d.d.d.d.d.d.d.d.d.d.d.d.d.d.d.d.d.d.d.d.d.d.d.d.d.d.d.d.e.f.g.g.g.g.g.g.g.g.                ",
"                  a.a.a.a.a.a.a.a.h.i.d.d.d.d.d.d.d.d.d.d.d.d.d.d.d.d.d.d.d.d.d.d.d.d.d.d.j.k.g.g.g.g.g.g.g.g.                  ",
"                      a.a.a.a.a.a.a.l.m.d.d.d.d.d.d.d.d.d.d.d.d.d.d.d.d.d.d.d.d.d.d.d.d.n.o.g.g.g.g.g.g.g.                      ",
"                        p.a.a.a.a.a.a.q.r.d.d.d.d.d.d.d.d.d.d.d.d.d.d.d.d.d.d.d.d.d.d.s.t.g.g.g.g.g.g.g.                        ",
"                            a.a.a.a.a.a.u.v.d.d.d.d.d.d.d.d.d.d.d.d.d.d.d.d.d.d.d.d.s.w.g.g.g.g.g.g.                            ",
"                              p.a.a.a.a.a.x.y.d.d.d.d.d.d.d.d.d.d.d.d.d.d.d.d.d.d.z.A.g.g.g.g.g.g.                              ",
"                                  a.a.a.a.a.B.y.d.d.d.d.d.d.d.d.d.d.d.d.d.d.d.d.C.D.g.g.g.g.g.                                  ",
"                                      a.a.a.a.E.F.d.d.d.d.d.d.d.d.d.d.d.d.d.d.C.G.g.g.g.g.                                      ",
"                                        a.a.a.a.H.d.d.d.d.d.d.d.d.d.d.d.d.d.I.J.g.g.g.g.                                        ",
"                                            a.a.a.K.d.d.d.d.d.d.d.d.d.d.d.I.L.g.g.g.                                            ",
"                                              a.a.a.M.d.d.d.d.d.d.d.d.d.d.N.g.g.g.                                              ",
"                                                  a.a.O.d.d.d.d.d.d.d.d.P.g.g.                                                  ",
"                                                    a.a.Q.d.d.d.d.d.d.R.g.g.                                                    ",
"                                                        p.S.d.d.d.d.T.g.                                                        ",
"                                                          U.V.d.d.W.X.                                                          ",
"                                                              Y.Z.                                                              ",
"                                                                                                                                ",
"                                                                                                                                "};
